<svg width="179" height="71" viewBox="0 0 179 71" fill="none" xmlns="http://www.w3.org/2000/svg">
<path d="M88.5078 23.2504C88.0681 23.4875 87.454 23.6876 86.6655 23.8506C85.8771 24.0136 85.1947 24.0952 84.6185 24.0952C84.0424 24.0952 83.5496 24.0729 83.1402 24.0285C82.7459 23.9988 82.3896 23.9321 82.0712 23.8284C81.7528 23.7098 81.4723 23.5987 81.2297 23.4949C80.9871 23.3912 80.7672 23.2133 80.5701 22.9614C80.3881 22.7094 80.2365 22.4945 80.1152 22.3167C79.9939 22.1388 79.8878 21.8498 79.7968 21.4497C79.721 21.0495 79.6603 20.7161 79.6148 20.4493C79.5693 20.1677 79.539 19.7379 79.5239 19.1599C79.4935 18.0335 79.4784 16.9739 79.4784 15.9809C79.4784 14.9879 79.486 14.2395 79.5011 13.7356C79.5163 13.2317 79.5466 12.624 79.5921 11.9126C79.6527 11.2012 79.7513 10.6973 79.8878 10.4009C80.0242 10.0897 80.2062 9.74142 80.4336 9.35608C80.6611 8.95593 80.9567 8.68175 81.3206 8.53354C82.2911 8.17785 83.3525 8 84.5048 8C85.6724 8 86.8096 8.16303 87.9164 8.48908L87.5753 9.93409C86.5594 9.69696 85.6496 9.57839 84.846 9.57839C84.0424 9.57839 83.4359 9.63026 83.0265 9.73401C82.6322 9.83775 82.329 9.95632 82.1167 10.0897C81.9044 10.2231 81.7452 10.438 81.6391 10.7344C81.5481 11.0308 81.495 11.2902 81.4799 11.5125C81.4647 11.72 81.4571 12.046 81.4571 12.4906V19.5378C81.4571 20.7235 81.5784 21.4423 81.821 21.6942C82.2152 22.0944 82.6398 22.3315 83.0947 22.4056C83.5496 22.4797 84.0954 22.5168 84.7323 22.5168C85.3691 22.5168 86.0211 22.4501 86.6883 22.3167V17.2703H84.5276V15.9364H88.5078V23.2504Z" fill="#010101"/>
<path d="M95.3483 17.8705H93.8699V23.8284H91.9139V8.26677H95.3483C97.1678 8.26677 98.4642 8.62987 99.2375 9.35608C100.011 10.0675 100.397 11.305 100.397 13.0686C100.397 14.2839 100.216 15.2473 99.8516 15.9587C99.5029 16.6552 98.9419 17.1517 98.1685 17.4481L100.784 23.8284H98.7826L96.2808 17.8483C96.0837 17.8631 95.7728 17.8705 95.3483 17.8705ZM98.4187 13.5577V12.5796C98.4187 12.1646 98.4112 11.8608 98.396 11.6681C98.3808 11.4606 98.3202 11.2161 98.214 10.9345C98.1231 10.6529 97.9714 10.4454 97.7592 10.312C97.2285 10.0008 96.4324 9.84516 95.371 9.84516H93.8699V16.2921H95.371C96.4324 16.2921 97.2285 16.1365 97.7592 15.8253C97.9714 15.6919 98.1231 15.4844 98.214 15.2028C98.3202 14.9212 98.3808 14.6841 98.396 14.4914C98.4112 14.2839 98.4187 13.9727 98.4187 13.5577Z" fill="#010101"/>
<path d="M111.611 23.5839C111.247 23.7172 110.8 23.8358 110.269 23.9395C109.754 24.0433 109.193 24.0952 108.586 24.0952C107.98 24.0952 107.472 24.0729 107.062 24.0285C106.668 23.9988 106.312 23.9321 105.993 23.8284C105.675 23.7098 105.394 23.5987 105.152 23.4949C104.909 23.3912 104.689 23.2133 104.492 22.9614C104.31 22.7094 104.159 22.4945 104.037 22.3167C103.916 22.1388 103.81 21.8498 103.719 21.4497C103.643 21.0495 103.583 20.7161 103.537 20.4493C103.492 20.1677 103.461 19.7379 103.446 19.1599C103.416 18.0335 103.401 16.9739 103.401 15.9809C103.401 14.9879 103.408 14.2395 103.423 13.7356C103.438 13.2317 103.469 12.624 103.514 11.9126C103.575 11.2012 103.674 10.6973 103.81 10.4009C103.946 10.0897 104.128 9.74142 104.356 9.35608C104.583 8.95593 104.879 8.68175 105.243 8.53354C106.213 8.17785 107.237 8 108.313 8C109.39 8 110.239 8.11115 110.861 8.33346C111.498 8.54095 111.998 8.7929 112.362 9.08931C112.726 9.38573 112.983 9.93409 113.135 10.7344C113.302 11.5347 113.4 12.2609 113.431 12.913C113.461 13.5651 113.476 14.5211 113.476 15.7808C113.476 17.0257 113.469 17.9002 113.454 18.4041C113.438 18.908 113.4 19.5156 113.34 20.227C113.294 20.9384 113.203 21.4497 113.067 21.7609C112.93 22.0573 112.748 22.3982 112.521 22.7835C112.294 23.1689 111.99 23.4356 111.611 23.5839ZM111.498 19.5378V12.5573C111.498 11.3717 111.369 10.6529 111.111 10.4009C110.732 10.0008 110.315 9.76365 109.86 9.68955C109.42 9.61544 108.95 9.57839 108.45 9.57839C107.949 9.57839 107.517 9.60803 107.153 9.66732C106.789 9.7266 106.494 9.83034 106.266 9.97855C106.054 10.1268 105.88 10.2675 105.743 10.4009C105.622 10.5343 105.531 10.7418 105.47 11.0234C105.41 11.3791 105.379 11.8904 105.379 12.5573V19.5378C105.379 20.7235 105.501 21.4423 105.743 21.6942C106.137 22.0944 106.562 22.3315 107.017 22.4056C107.472 22.4797 107.949 22.5168 108.45 22.5168C108.95 22.5168 109.375 22.4871 109.723 22.4278C110.087 22.3686 110.375 22.2648 110.588 22.1166C110.815 21.9684 110.99 21.8276 111.111 21.6942C111.247 21.5608 111.338 21.3534 111.384 21.0718C111.46 20.7161 111.498 20.2048 111.498 19.5378Z" fill="#010101"/>
<path d="M124.729 19.5378V8.26677H126.685V16.0698C126.685 19.2414 126.549 21.131 126.276 21.7387C126.155 22.0351 125.973 22.3834 125.73 22.7835C125.503 23.1689 125.207 23.4356 124.843 23.5839C124.479 23.7172 124.032 23.8358 123.501 23.9395C122.986 24.0433 122.372 24.0952 121.659 24.0952C120.946 24.0952 120.332 24.0433 119.817 23.9395C119.301 23.8358 118.854 23.7172 118.475 23.5839C118.111 23.4356 117.815 23.1689 117.588 22.7835C117.36 22.3834 117.178 22.0351 117.042 21.7387C116.921 21.4423 116.83 20.9384 116.769 20.227C116.693 19.3378 116.655 17.952 116.655 16.0698V8.26677H118.611V19.5378C118.611 19.9824 118.619 20.3159 118.634 20.5382C118.649 20.7457 118.702 20.9977 118.793 21.2941C118.899 21.5905 119.059 21.8054 119.271 21.9388C119.483 22.0722 119.786 22.1907 120.181 22.2945C120.59 22.3982 121.09 22.4501 121.682 22.4501C122.273 22.4501 122.766 22.3982 123.16 22.2945C123.554 22.1907 123.858 22.0722 124.07 21.9388C124.282 21.8054 124.434 21.5905 124.525 21.2941C124.631 20.9977 124.692 20.7457 124.707 20.5382C124.722 20.3159 124.729 19.9824 124.729 19.5378Z" fill="#010101"/>
<path d="M130.218 8.26677H133.084L137.656 21.2496H137.792V8.26677H139.703V23.8284H136.837L132.265 10.8456H132.129V23.8284H130.218V8.26677Z" fill="#010101"/>
<path d="M143.334 8.26677H147.883C149.111 8.26677 150.173 8.4298 151.067 8.75585C151.446 8.88924 151.75 9.14118 151.977 9.5117C152.205 9.86739 152.387 10.1934 152.523 10.4899C152.659 10.7863 152.75 11.2754 152.796 11.9571C152.887 13.0538 152.932 14.3803 152.932 15.9364C152.932 17.4778 152.917 18.5671 152.887 19.2044C152.857 19.8417 152.758 20.5456 152.591 21.3163C152.44 22.0722 152.182 22.5835 151.818 22.8502C150.923 23.5023 149.612 23.8284 147.883 23.8284H143.334V8.26677ZM147.906 9.86739H145.29V22.1833H147.906C148.952 22.1833 149.748 22.0129 150.294 21.672C150.673 21.4349 150.885 20.968 150.931 20.2715C150.946 20.0491 150.954 19.7157 150.954 19.2711V12.7796C150.954 12.335 150.946 12.009 150.931 11.8015C150.916 11.5792 150.855 11.3198 150.749 11.0234C150.658 10.727 150.506 10.5121 150.294 10.3787C149.748 10.0378 148.952 9.86739 147.906 9.86739Z" fill="#010101"/>
<path d="M78 30.2753V28.7192H86.6428V30.2753H83.2994V44.2808H81.3434V30.2753H78Z" fill="#010101"/>
<path d="M91.9056 38.3229H90.4272V44.2808H88.4712V28.7192H91.9056C93.7251 28.7192 95.0215 29.0823 95.7948 29.8085C96.5681 30.5199 96.9548 31.7574 96.9548 33.5211C96.9548 34.7363 96.7728 35.6997 96.4089 36.4111C96.0602 37.1076 95.4991 37.6041 94.7258 37.9005L97.3414 44.2808H95.3399L92.8381 38.3007C92.641 38.3155 92.3301 38.3229 91.9056 38.3229ZM94.976 34.0101V33.032C94.976 32.617 94.9684 32.3132 94.9533 32.1205C94.9381 31.913 94.8775 31.6685 94.7713 31.3869C94.6803 31.1053 94.5287 30.8978 94.3164 30.7644C93.7857 30.4532 92.9897 30.2976 91.9283 30.2976H90.4272V36.7445H91.9283C92.9897 36.7445 93.7857 36.5889 94.3164 36.2777C94.5287 36.1443 94.6803 35.9368 94.7713 35.6552C94.8775 35.3736 94.9381 35.1365 94.9533 34.9438C94.9684 34.7363 94.976 34.4251 94.976 34.0101Z" fill="#010101"/>
<path d="M101.05 44.2808H99.0481L102.824 28.7192H106.144L109.92 44.2808H107.918L106.986 40.3459H101.982L101.05 44.2808ZM106.599 38.7898L104.552 30.142H104.416L102.346 38.7898H106.599Z" fill="#010101"/>
<path d="M112.305 28.7192H115.17L119.742 41.702H119.878V28.7192H121.789V44.2808H118.923L114.352 31.298H114.215V44.2808H112.305V28.7192Z" fill="#010101"/>
<path d="M133.267 40.0347C133.267 41.4278 132.926 42.532 132.244 43.3471C131.562 44.1474 130.44 44.5476 128.878 44.5476C127.331 44.5476 125.913 44.2734 124.625 43.725L125.034 42.3467C126.247 42.7617 127.49 42.9692 128.764 42.9692C129.659 42.9692 130.311 42.7543 130.72 42.3245C131.145 41.8947 131.357 41.2352 131.357 40.3459C131.357 39.4567 131.243 38.7824 131.016 38.3229C130.788 37.8635 130.311 37.5819 129.583 37.4782L127.331 37.1669C126.27 37.0039 125.557 36.5815 125.193 35.8998C124.844 35.218 124.67 34.188 124.67 32.8097C124.67 31.4314 125.034 30.3643 125.762 29.6084C126.505 28.8378 127.521 28.4524 128.81 28.4524C130.114 28.4524 131.418 28.6895 132.722 29.1638L132.312 30.4977C131.175 30.1864 130.144 30.0308 129.219 30.0308C128.309 30.0308 127.642 30.2161 127.217 30.5866C126.793 30.9423 126.581 31.6166 126.581 32.6096C126.581 33.6026 126.687 34.314 126.899 34.7438C127.126 35.1736 127.574 35.4329 128.241 35.5218L130.379 35.8331C131.349 35.9813 132.07 36.374 132.54 37.0113C133.025 37.6338 133.267 38.6416 133.267 40.0347Z" fill="#010101"/>
<path d="M136.116 28.7192H139.55C141.37 28.7192 142.666 29.0971 143.439 29.853C144.213 30.6088 144.599 31.9056 144.599 33.7434C144.599 35.5811 144.213 36.8779 143.439 37.6338C142.666 38.3896 141.37 38.7675 139.55 38.7675H138.072V44.2808H136.116V28.7192ZM142.621 34.2769V33.2098C142.621 32.7652 142.613 32.4392 142.598 32.2317C142.583 32.0094 142.522 31.75 142.416 31.4536C142.325 31.1572 142.173 30.9423 141.961 30.8089C141.415 30.468 140.619 30.2976 139.573 30.2976H138.072V37.1892H139.573C140.619 37.1892 141.415 37.0187 141.961 36.6778C142.34 36.4407 142.552 35.9665 142.598 35.2551C142.613 35.0476 142.621 34.7215 142.621 34.2769Z" fill="#010101"/>
<path d="M155.191 44.0363C154.827 44.1697 154.38 44.2882 153.849 44.392C153.334 44.4957 152.773 44.5476 152.166 44.5476C151.56 44.5476 151.052 44.5253 150.642 44.4809C150.248 44.4512 149.892 44.3846 149.573 44.2808C149.255 44.1622 148.974 44.0511 148.732 43.9473C148.489 43.8436 148.269 43.6658 148.072 43.4138C147.89 43.1619 147.739 42.947 147.617 42.7691C147.496 42.5913 147.39 42.3023 147.299 41.9021C147.223 41.5019 147.162 41.1685 147.117 40.9017C147.071 40.6201 147.041 40.1903 147.026 39.6123C146.996 38.486 146.981 37.4263 146.981 36.4333C146.981 35.4403 146.988 34.6919 147.003 34.188C147.018 33.6841 147.049 33.0764 147.094 32.3651C147.155 31.6537 147.253 31.1498 147.39 30.8534C147.526 30.5421 147.708 30.1938 147.936 29.8085C148.163 29.4083 148.459 29.1342 148.823 28.986C149.793 28.6303 150.817 28.4524 151.893 28.4524C152.97 28.4524 153.819 28.5636 154.441 28.7859C155.077 28.9934 155.578 29.2453 155.942 29.5417C156.306 29.8381 156.563 30.3865 156.715 31.1868C156.882 31.9871 156.98 32.7133 157.011 33.3654C157.041 34.0175 157.056 34.9735 157.056 36.2332C157.056 37.4782 157.049 38.3526 157.033 38.8565C157.018 39.3604 156.98 39.968 156.92 40.6794C156.874 41.3908 156.783 41.9021 156.647 42.2133C156.51 42.5097 156.328 42.8506 156.101 43.236C155.873 43.6213 155.57 43.8881 155.191 44.0363ZM155.077 39.9902V33.0097C155.077 31.8241 154.949 31.1053 154.691 30.8534C154.312 30.4532 153.895 30.2161 153.44 30.142C153 30.0679 152.53 30.0308 152.03 30.0308C151.529 30.0308 151.097 30.0604 150.733 30.1197C150.369 30.179 150.074 30.2828 149.846 30.431C149.634 30.5792 149.46 30.72 149.323 30.8534C149.202 30.9867 149.111 31.1942 149.05 31.4758C148.99 31.8315 148.959 32.3428 148.959 33.0097V39.9902C148.959 41.1759 149.081 41.8947 149.323 42.1466C149.717 42.5468 150.142 42.7839 150.597 42.858C151.052 42.9321 151.529 42.9692 152.03 42.9692C152.53 42.9692 152.955 42.9395 153.303 42.8803C153.667 42.821 153.955 42.7172 154.168 42.569C154.395 42.4208 154.569 42.28 154.691 42.1466C154.827 42.0133 154.918 41.8058 154.964 41.5242C155.04 41.1685 155.077 40.6572 155.077 39.9902Z" fill="#010101"/>
<path d="M163.783 38.3229H162.305V44.2808H160.349V28.7192H163.783C165.603 28.7192 166.899 29.0823 167.673 29.8085C168.446 30.5199 168.832 31.7574 168.832 33.5211C168.832 34.7363 168.651 35.6997 168.287 36.4111C167.938 37.1076 167.377 37.6041 166.604 37.9005L169.219 44.2808H167.218L164.716 38.3007C164.519 38.3155 164.208 38.3229 163.783 38.3229ZM166.854 34.0101V33.032C166.854 32.617 166.846 32.3132 166.831 32.1205C166.816 31.913 166.755 31.6685 166.649 31.3869C166.558 31.1053 166.406 30.8978 166.194 30.7644C165.663 30.4532 164.867 30.2976 163.806 30.2976H162.305V36.7445H163.806C164.867 36.7445 165.663 36.5889 166.194 36.2777C166.406 36.1443 166.558 35.9368 166.649 35.6552C166.755 35.3736 166.816 35.1365 166.831 34.9438C166.846 34.7363 166.854 34.4251 166.854 34.0101Z" fill="#010101"/>
<path d="M170.357 30.2753V28.7192H179V30.2753H175.657V44.2808H173.701V30.2753H170.357Z" fill="#010101"/>
<path d="M81.3206 49.4606C81.6997 49.3124 82.147 49.1864 82.6625 49.0827C83.1781 48.9641 83.8832 48.9048 84.7778 48.9048C85.6875 48.9048 86.5821 49.0382 87.4616 49.305L87.1204 50.75C86.3623 50.5722 85.6117 50.4832 84.8687 50.4832C84.1409 50.4832 83.5951 50.5129 83.2312 50.5722C82.8672 50.6314 82.5716 50.7352 82.3441 50.8834C82.1319 51.0316 81.9575 51.1724 81.821 51.3058C81.6997 51.4392 81.6087 51.6466 81.5481 51.9282C81.4874 52.2839 81.4571 52.7952 81.4571 53.4622V60.4427C81.4571 61.6283 81.5784 62.3471 81.821 62.5991C82.2152 62.9992 82.6398 63.2363 83.0947 63.3104C83.5496 63.3846 84.1333 63.4216 84.846 63.4216C85.5586 63.4216 86.385 63.303 87.3251 63.0659L87.7572 64.3775C86.7413 64.7925 85.6572 65 84.5048 65C83.4131 65 82.655 64.9259 82.2304 64.7777C81.8059 64.6295 81.4723 64.5035 81.2297 64.3998C80.9871 64.296 80.7672 64.1182 80.5701 63.8662C80.3881 63.6143 80.2365 63.3994 80.1152 63.2215C79.9939 63.0437 79.8878 62.7547 79.7968 62.3545C79.721 61.9544 79.6603 61.6209 79.6148 61.3541C79.5693 61.0725 79.539 60.6427 79.5239 60.0647C79.4935 58.9384 79.4784 57.8787 79.4784 56.8857C79.4784 55.8927 79.486 55.1443 79.5011 54.6404C79.5163 54.1365 79.5466 53.5289 79.5921 52.8175C79.6527 52.1061 79.7513 51.6022 79.8878 51.3058C80.0242 50.9945 80.2062 50.6463 80.4336 50.2609C80.6611 49.8608 80.9567 49.594 81.3206 49.4606Z" fill="#010101"/>
<path d="M98.1176 64.4887C97.7536 64.6221 97.3063 64.7406 96.7756 64.8444C96.2601 64.9481 95.6991 65 95.0926 65C94.4861 65 93.9781 64.9778 93.5687 64.9333C93.1745 64.9037 92.8182 64.837 92.4997 64.7332C92.1813 64.6147 91.9008 64.5035 91.6582 64.3998C91.4156 64.296 91.1958 64.1182 90.9986 63.8662C90.8167 63.6143 90.6651 63.3994 90.5438 63.2215C90.4224 63.0437 90.3163 62.7547 90.2253 62.3545C90.1495 61.9544 90.0889 61.6209 90.0434 61.3541C89.9979 61.0725 89.9676 60.6427 89.9524 60.0647C89.9221 58.9384 89.9069 57.8787 89.9069 56.8857C89.9069 55.8927 89.9145 55.1443 89.9297 54.6404C89.9448 54.1365 89.9751 53.5289 90.0206 52.8175C90.0813 52.1061 90.1798 51.6022 90.3163 51.3058C90.4528 50.9945 90.6347 50.6463 90.8622 50.2609C91.0896 49.8608 91.3853 49.5866 91.7492 49.4384C92.7196 49.0827 93.7431 48.9048 94.8197 48.9048C95.8962 48.9048 96.7453 49.016 97.367 49.2383C98.0038 49.4458 98.5042 49.6977 98.8681 49.9941C99.232 50.2906 99.4898 50.8389 99.6414 51.6392C99.8082 52.4395 99.9068 53.1658 99.9371 53.8179C99.9674 54.47 99.9826 55.4259 99.9826 56.6856C99.9826 57.9306 99.975 58.805 99.9598 59.3089C99.9447 59.8128 99.9068 60.4204 99.8461 61.1318C99.8006 61.8432 99.7096 62.3545 99.5732 62.6658C99.4367 62.9622 99.2548 63.303 99.0273 63.6884C98.7999 64.0737 98.4966 64.3405 98.1176 64.4887ZM98.0038 60.4427V53.4622C98.0038 52.2765 97.8749 51.5577 97.6172 51.3058C97.2381 50.9056 96.8211 50.6685 96.3663 50.5944C95.9265 50.5203 95.4565 50.4832 94.9561 50.4832C94.4557 50.4832 94.0236 50.5129 93.6597 50.5722C93.2958 50.6314 93.0001 50.7352 92.7727 50.8834C92.5604 51.0316 92.386 51.1724 92.2496 51.3058C92.1283 51.4392 92.0373 51.6466 91.9766 51.9282C91.916 52.2839 91.8857 52.7952 91.8857 53.4622V60.4427C91.8857 61.6283 92.007 62.3471 92.2496 62.5991C92.6438 62.9992 93.0684 63.2363 93.5232 63.3104C93.9781 63.3846 94.4557 63.4216 94.9561 63.4216C95.4565 63.4216 95.881 63.392 96.2298 63.3327C96.5937 63.2734 96.8818 63.1696 97.0941 63.0214C97.3215 62.8732 97.4959 62.7324 97.6172 62.5991C97.7536 62.4657 97.8446 62.2582 97.8901 61.9766C97.9659 61.6209 98.0038 61.1096 98.0038 60.4427Z" fill="#010101"/>
<path d="M103.275 49.1716H106.141L110.713 62.1544H110.849V49.1716H112.76V64.7332H109.894L105.322 51.7504H105.186V64.7332H103.275V49.1716Z" fill="#010101"/>
<path d="M117.893 49.4606C118.272 49.3124 118.719 49.1864 119.234 49.0827C119.75 48.9641 120.455 48.9048 121.35 48.9048C122.259 48.9048 123.154 49.0382 124.033 49.305L123.692 50.75C122.934 50.5722 122.184 50.4832 121.441 50.4832C120.713 50.4832 120.167 50.5129 119.803 50.5722C119.439 50.6314 119.143 50.7352 118.916 50.8834C118.704 51.0316 118.529 51.1724 118.393 51.3058C118.272 51.4392 118.181 51.6466 118.12 51.9282C118.059 52.2839 118.029 52.7952 118.029 53.4622V60.4427C118.029 61.6283 118.15 62.3471 118.393 62.5991C118.787 62.9992 119.212 63.2363 119.667 63.3104C120.121 63.3846 120.705 63.4216 121.418 63.4216C122.131 63.4216 122.957 63.303 123.897 63.0659L124.329 64.3775C123.313 64.7925 122.229 65 121.077 65C119.985 65 119.227 64.9259 118.802 64.7777C118.378 64.6295 118.044 64.5035 117.802 64.3998C117.559 64.296 117.339 64.1182 117.142 63.8662C116.96 63.6143 116.808 63.3994 116.687 63.2215C116.566 63.0437 116.46 62.7547 116.369 62.3545C116.293 61.9544 116.232 61.6209 116.187 61.3541C116.141 61.0725 116.111 60.6427 116.096 60.0647C116.065 58.9384 116.05 57.8787 116.05 56.8857C116.05 55.8927 116.058 55.1443 116.073 54.6404C116.088 54.1365 116.118 53.5289 116.164 52.8175C116.225 52.1061 116.323 51.6022 116.46 51.3058C116.596 50.9945 116.778 50.6463 117.006 50.2609C117.233 49.8608 117.529 49.594 117.893 49.4606Z" fill="#010101"/>
<path d="M126.82 49.1716H128.776V64.7332H126.82V49.1716Z" fill="#010101"/>
<path d="M132.406 64.7332V49.1716H139.98L139.753 50.7278H134.362V56.1521H139.298V57.7083H134.362V63.1771H140.208V64.7332H132.406Z" fill="#010101"/>
<path d="M146.136 58.7753H144.658V64.7332H142.702V49.1716H146.136C147.956 49.1716 149.252 49.5347 150.025 50.2609C150.799 50.9723 151.185 52.2098 151.185 53.9735C151.185 55.1888 151.003 56.1521 150.639 56.8635C150.291 57.5601 149.73 58.0565 148.956 58.353L151.572 64.7332H149.571L147.069 58.7531C146.872 58.7679 146.561 58.7753 146.136 58.7753ZM149.207 54.4626V53.4844C149.207 53.0694 149.199 52.7656 149.184 52.5729C149.169 52.3654 149.108 52.1209 149.002 51.8393C148.911 51.5577 148.759 51.3502 148.547 51.2168C148.016 50.9056 147.22 50.75 146.159 50.75H144.658V57.197H146.159C147.22 57.197 148.016 57.0413 148.547 56.7301C148.759 56.5967 148.911 56.3892 149.002 56.1076C149.108 55.826 149.169 55.5889 149.184 55.3963C149.199 55.1888 149.207 54.8775 149.207 54.4626Z" fill="#010101"/>
<path d="M163.218 64.1552C162.778 64.3923 162.164 64.5924 161.376 64.7555C160.587 64.9185 159.905 65 159.329 65C158.752 65 158.26 64.9778 157.85 64.9333C157.456 64.9037 157.1 64.837 156.781 64.7332C156.463 64.6147 156.182 64.5035 155.94 64.3998C155.697 64.296 155.477 64.1182 155.28 63.8662C155.098 63.6143 154.947 63.3994 154.825 63.2215C154.704 63.0437 154.598 62.7547 154.507 62.3545C154.431 61.9544 154.37 61.6209 154.325 61.3541C154.279 61.0725 154.249 60.6427 154.234 60.0647C154.204 58.9384 154.188 57.8787 154.188 56.8857C154.188 55.8927 154.196 55.1443 154.211 54.6404C154.226 54.1365 154.257 53.5289 154.302 52.8175C154.363 52.1061 154.461 51.6022 154.598 51.3058C154.734 50.9945 154.916 50.6463 155.144 50.2609C155.371 49.8608 155.667 49.5866 156.031 49.4384C157.001 49.0827 158.063 48.9048 159.215 48.9048C160.382 48.9048 161.52 49.0679 162.627 49.3939L162.285 50.8389C161.269 50.6018 160.36 50.4832 159.556 50.4832C158.752 50.4832 158.146 50.5351 157.737 50.6388C157.342 50.7426 157.039 50.8611 156.827 50.9945C156.614 51.1279 156.455 51.3428 156.349 51.6392C156.258 51.9356 156.205 52.195 156.19 52.4173C156.175 52.6248 156.167 52.9509 156.167 53.3955V60.4427C156.167 61.6283 156.288 62.3471 156.531 62.5991C156.925 62.9992 157.35 63.2363 157.805 63.3104C158.26 63.3846 158.806 63.4216 159.442 63.4216C160.079 63.4216 160.731 63.3549 161.398 63.2215V58.1751H159.238V56.8413H163.218V64.1552Z" fill="#010101"/>
<path d="M166.624 64.7332V49.1716H174.198L173.97 50.7278H168.58V56.1521H173.515V57.7083H168.58V63.1771H174.425V64.7332H166.624Z" fill="#010101"/>
<path fill-rule="evenodd" clip-rule="evenodd" d="M70.4277 30.9758C62.923 39.909 51.0798 49.9788 36.8041 54.3027C25.4819 51.339 7.84907 42.0891 2.51192 22.2353C7.71985 9.2054 20.4588 0 35.3477 0C53.3894 0 68.2741 13.5167 70.4277 30.9758ZM0.18462 31.7128C5.93717 40.8959 17.4619 52.4631 35.3492 54.721C25.9454 57.2793 15.5371 57.3015 4.65079 52.8859C1.69155 47.7175 0 41.7301 0 35.3477C0 34.1204 0.0625446 32.9078 0.18462 31.7128ZM69.0622 45.9995C48.2893 66.4905 22.0505 61.7107 5.14343 53.7196C11.3483 63.8989 22.5543 70.6954 35.3477 70.6954C51.1577 70.6954 64.5434 60.3159 69.0622 45.9995ZM34.3873 21.1032L21.5308 9.62766L22.6896 26.1701L23.25 38.4242L30.2906 28.1771L57.527 40.5629L34.3873 21.1032Z" fill="url(#paint0_angular_286_11)"/>
<defs>
<radialGradient id="paint0_angular_286_11" cx="0" cy="0" r="1" gradientUnits="userSpaceOnUse" gradientTransform="translate(30 26.5) rotate(101.124) scale(58.058 57.8382)">
<stop offset="0.0117712" stop-color="#FF7A00" stop-opacity="0.66"/>
<stop offset="0.145833" stop-color="#CF1801" stop-opacity="0.67"/>
<stop offset="0.381999" stop-color="#FF003D" stop-opacity="0.82"/>
<stop offset="0.630208" stop-color="#A11497" stop-opacity="0.858696"/>
<stop offset="0.831" stop-color="#5523E0" stop-opacity="0.81"/>
</radialGradient>
</defs>
</svg>
